<svg xmlns="http://www.w3.org/2000/svg" width="64" height="64" fill="none"><path fill="none" d="M0 0h64v64H0z"/><path fill="#4D5AE5" d="M63.9481 9.0481a1.068 1.068 0 0 0-.8608-.7254l-3.8208-.5557-1.7099-3.4625c-.3584-.7296-1.5541-.7296-1.9125 0L53.9342 7.767l-3.821.5559a1.0691 1.0691 0 0 0-.8618.7253c-.1248.3862-.0214.8107.2698 1.0934l2.766 2.6956-.6528 3.8059c-.0683.4.096.8043.4235 1.0433a1.0617 1.0617 0 0 0 1.1243.081l3.4176-1.7974 3.4177 1.7974a1.068 1.068 0 0 0 .4971.1226c.2208 0 .4417-.0682.6273-.2037a1.0652 1.0652 0 0 0 .4235-1.0433l-.6527-3.8059 2.7659-2.6956a1.0699 1.0699 0 0 0 .2695-1.0934Zm-4.9258 2.6539a1.0668 1.0668 0 0 0-.3062.9441l.3819 2.2282-2.001-1.0517a1.0638 1.0638 0 0 0-.4972-.1227c-.1706 0-.3402.0405-.4971.1227l-2.0011 1.0517.3818-2.2282a1.0677 1.0677 0 0 0-.3061-.9441l-1.6203-1.5786 2.2379-.3254a1.0662 1.0662 0 0 0 .8033-.5835l1.0005-2.0266 1.0005 2.0266c.1558.3146.4555.5334.8033.5835l2.2379.3254-1.6181 1.5786Z"/><path fill="#4D5AE5" fill-rule="evenodd" d="M52.2669 41.0444h-2.1334v2.1334h2.1334v-2.1334ZM52.2669 45.3112h-2.1334v2.1334h2.1334v-2.1334ZM54.4004 43.1778H52.267v2.1334h2.1334v-2.1334Z"/><path fill="#4D5AE5" fill-rule="evenodd" d="M50.1337 43.1778h-2.1335v2.1334h2.1335v-2.1334ZM44.8001 52.778h-2.1334v2.1333h2.1334V52.778ZM44.8001 57.0447h-2.1334v2.1334h2.1334v-2.1334ZM46.9336 54.9114h-2.1334v2.1334h2.1334v-2.1334Z"/><path fill="#4D5AE5" fill-rule="evenodd" d="M42.6669 54.9114h-2.1335v2.1334h2.1335v-2.1334ZM32 48.5113h-2.1334v2.1334H32v-2.1334ZM32 52.778h-2.1334v2.1333H32V52.778ZM34.1334 50.6445H32v2.1334h2.1334v-2.1334ZM29.8666 50.6445h-2.1334v2.1334h2.1334v-2.1334ZM11.733 12.244H9.5996v2.1334h2.1334V12.244ZM11.733 16.5107H9.5996v2.1335h2.1334v-2.1335Z"/><path fill="#4D5AE5" fill-rule="evenodd" d="M13.8663 14.3774h-2.1334v2.1334h2.1334v-2.1334ZM9.5997 14.3774H7.4663v2.1334h2.1334v-2.1334Z"/><path fill="#2E2F42" d="M49.4295 28.3189c-.5749-.7755-1.4186-1.2746-2.3765-1.4091-.9622-.1365-1.9116.1162-2.6796.704l-2.5035 1.9189-.0011.0011-3.7954 2.8342-2.7157-1.0817c4.8427-2.1728 8.2273-7.0166 8.2273-12.6402 0-7.646-6.2454-13.8668-13.9223-13.8668s-13.9222 6.2208-13.9222 13.8668c0 2.7713.8287 5.3484 2.24 7.5169l-5.5276-.048h-.0096c-.0171 0-.0309.0085-.0469.0096a1.0455 1.0455 0 0 0-.3104.0619c-.0256.0096-.0522.015-.0767.0266-.0128.0054-.0256.0064-.0384.0128l-6.4662 3.1925c-.0011 0-.0021 0-.0021.001l-3.7869 1.8211a.8278.8278 0 0 0-.1258.0703C.0805 32.3156-.4337 34.289.393 35.9018c.4405.8576 1.1904 1.4891 2.112 1.7781a3.6138 3.6138 0 0 0 1.0784.1654c.5793 0 1.1532-.1419 1.679-.4224l2.7755-1.4763 4.528-2.3381 2.7137-.016L4.3963 44.4237c-.001.0011-.0021.0011-.0033.0021l-2.6774 2.6666c-.6325.6294-.9802 1.4646-.9802 2.3553 0 .8897.3477 1.7269.9802 2.3574.6497.6464 1.504.9707 2.3584.9707.8556 0 1.7088-.3243 2.3606-.9707l2.6283-2.6176 3.4816-2.5996 1.8017 1.7942-3.5233 3.5083c-.001.0011-.0021.0011-.0033.0021l-2.6774 2.6667c-.6325.6294-.9802 1.4645-.9802 2.3553 0 .8896.3477 1.7269.9802 2.3574.6497.6464 1.5052.9706 2.3596.9706.8544 0 1.7099-.3242 2.3605-.9706l2.6784-2.6667 4.2848-4.2667c.0012-.0011.0012-.0021.0022-.0032l2.0192-2.0001-.0075-.0075c.0128-.0127.0309-.0171.0438-.0308l10.3319-11.3165 6.942.9878c.0501.0075.1002.0106.1504.0106.1291 0 .2538-.0308.3744-.0767.0352-.0128.0661-.0299.0992-.0469.0384-.0192.0789-.0299.1153-.0544l6.4267-4.2667c.0235-.016.0362-.0416.0586-.0586.0256-.0202.0576-.0287.081-.0512l2.5429-2.3819c1.3232-1.2398 1.5055-3.2707.4239-4.7235ZM4.2608 35.5403c-.3466.1856-.7403.2228-1.1168.1035-.3734-.1163-.6762-.3713-.8534-.7158-.3221-.6272-.1355-1.391.4288-1.8038l2.6273-1.264.6325 1.8485.2656.7766-1.984 1.055Zm6.9942-3.6555-3.0965 1.6001-.511-1.4934-.3668-1.0732 4.0535-2.0011-.0792 2.9676ZM41.4539 18.644c0 1.8368-.4384 3.5692-1.1979 5.119l-8.3628-3.7985c-.0875-1.1466-.6826-2.1504-1.5765-2.7755l2.928-9.7207c4.7554 1.5127 8.2092 5.949 8.2092 11.1757Zm-23.5779 0c0-6.4695 5.2886-11.7335 11.7889-11.7335.5057 0 1.0006.0426 1.4902.1045l-2.8641 9.5074c-.0383-.0012-.0746-.0118-.1141-.0118-2.0651 0-3.7452 1.6747-3.7452 3.7334s1.6801 3.7335 3.7452 3.7335c1.3888 0 2.5888-.7669 3.2363-1.8892l7.7249 3.5094c-2.1494 2.8928-5.5895 4.7799-9.4733 4.7799-6.5002 0-11.7888-5.2641-11.7888-11.7336Zm11.9127 1.6c0 .8822-.7233 1.6001-1.6118 1.6001-.8885 0-1.6118-.7179-1.6118-1.6001 0-.8821.7233-1.6 1.6118-1.6.8885 0 1.6118.7179 1.6118 1.6ZM4.9297 50.2925c-.4725.4683-1.2374.4673-1.7088.0011-.2272-.2272-.352-.5269-.352-.8459 0-.3178.1248-.6176.352-.8426l1.9242-1.9169 1.7024 1.695-1.9178 1.9093Zm6.4277 7.4669c-.4725.4682-1.2384.4693-1.7099.0011-.2273-.2273-.352-.5269-.352-.8459 0-.3179.1247-.6176.352-.8426l1.9254-1.9179.8054.8011.8981.8939-1.919 1.9103Zm6.9634-6.9378c-.0012.001-.0022.001-.0033.0022l-3.5297 3.52-.8054-.8011-.8981-.8939 3.5264-3.5104v-.001c.0012-.0012.0022-.0012.0033-.0022.08-.08.1301-.176.1792-.2709.0139-.0277.0405-.0512.0523-.08.0331-.0821.0384-.1706.0512-.2571.0064-.0491.0278-.0949.0278-.1451 0-.0715-.0256-.1408-.0405-.2113-.0128-.064-.0128-.1291-.0374-.1908-.0405-.1003-.1099-.1888-.1824-.2753-.0202-.0235-.0277-.0534-.0501-.0757h-.0011c-.0011-.001-.0011-.0033-.0021-.0043l-3.214-3.2c-.0341-.0342-.0778-.048-.1162-.0768-.0565-.0437-.1109-.0842-.1739-.1152-.0607-.0299-.1226-.048-.1866-.0652-.0683-.0192-.1344-.0341-.2059-.0395-.0651-.0042-.1259.0022-.1909.0097-.0715.0085-.1386.0181-.208.0405-.0672.0213-.1269.0543-.1887.0896-.0395.0224-.0843.0298-.1217.0576l-3.5466 2.6475-1.8017-1.7941 4.798-4.7723 8.7212 8.5772-1.8551 1.8379Zm13.6376-14.0333c-.0309-.0043-.0598.0075-.0907.0054a1.0496 1.0496 0 0 0-.2304.0138c-.0607.0107-.1183.0224-.176.0427-.0682.0235-.1301.0555-.1931.0938a1.0344 1.0344 0 0 0-.1664.1227c-.0256.0223-.0565.0331-.08.0586l-9.3965 10.2914-8.6561-8.5133 5.6662-5.6363c.4171-.416.4192-1.0913.0032-1.5094-.2101-.2101-.4863-.3136-.7626-.3125v-.001l-4.4374.0266.0555-3.2149 6.2081.0534c2.5301 2.5878 6.0587 4.2017 9.9627 4.2017.8747 0 1.7281-.0907 2.559-.2454.08.064.1588.1291.2592.1696l4.8193 1.9201.305 1.5167.3563 1.7707-6.0053-.8544Zm8.0822.3562-.6261-3.1158 2.8928-2.16.7574 1.0048 1.136 1.5083-4.1601 2.7627Zm7.5072-5.6619-1.6757 1.5701-1.8624-2.4725 1.6629-1.2747c.3103-.2388.7019-.336 1.0859-.2858.3861.0543.7275.256.96.5685a1.4282 1.4282 0 0 1-.1707 1.8944Z"/><path fill="#2E2F42" d="m27.2042 37.0881-4.2859-4.2667c-.4149-.4149-1.0891-.4149-1.5052 0l-4.2848 4.2667a1.0718 1.0718 0 0 0-.3136.7563c0 .2837.112.5557.3136.7562l4.2848 4.2667c.208.2069.4812.3104.7532.3104.272 0 .545-.1035.752-.3104l4.2859-4.2667a1.0709 1.0709 0 0 0 .3147-.7562c0-.2838-.1132-.5558-.3147-.7563Zm-5.0379 3.5179-2.7734-2.7616 2.7734-2.7617 2.7744 2.7617-2.7744 2.7616ZM34.3285 10.1415l-.5153 2.0716c.1419.0352 3.4753.9035 3.4753 4.2977h2.1334c-.0001-4.0343-3.3313-5.9309-5.0934-6.3693Z"/><path fill="#2E2F42" fill-rule="evenodd" d="M39.422 18.644h-2.1334v2.1335h2.1334V18.644Z"/></svg>